# xmcd CD database file
#
# Track frame offsets:
#	150
#	21147
#	40407
#	66888
#	96210
#	117338
#	133796
#	161696
#	183300
#	203007
#	217728
#	237223
#	257662
#	277606
#	297582
#	311609
#	331827
#
# Disc length: 4804 seconds
#
# Revision: 0
# Processed by: cddbd v1.5.2PL0 Copyright (c) Steve Scherf et al.
# Submitted via: CDex 1.51
#
DISCID=f212c211
DTITLE=Various Artist - Paint It, Blue - Songs of the Rolling Stones
DYEAR=1900
DGENRE=Blues
TTITLE0=Allison, Luther - You Can't Always Get What You Want
TTITLE1=Copeland , Johnny - Tumbling Dice
TTITLE2=Wells , Junior - (I Can't Get No) Satisfaction
TTITLE3=Clay , Otis - Wild Horses
TTITLE4=Taj Mahal  - Honky Tonk Women
TTITLE5=Hart, Alvin Youngblood - Sway
TTITLE6=Brown, Clarence 'Gatemouth' - Ventilator Blues
TTITLE7=Holmes Brothers - Beast of Burden
TTITLE8=Peterson, Lucky  - Under My Thumb
TTITLE9=Womack, Bobby - It's All Over Now
TTITLE10=McCray, Larry - Midnight Rambler
TTITLE11=Walker , Joe - Heart of Stone
TTITLE12=Hart, Alvin Youngblood  - Moonlight Mile
TTITLE13=Paint It Black
TTITLE14=Bowie, David - Let's Spend The Night Together
TTITLE15=London Symphony Orchestra - Lady Jane
TTITLE16=Grand Funk - Gimme Shelter
EXTD=
EXTT0=
EXTT1=
EXTT2=
EXTT3=
EXTT4=
EXTT5=
EXTT6=
EXTT7=
EXTT8=
EXTT9=
EXTT10=
EXTT11=
EXTT12=
EXTT13=
EXTT14=
EXTT15=
EXTT16=
PLAYORDER=
